<svg xmlns="http://www.w3.org/2000/svg" enable-background="new 0 0 32 32" viewBox="0 0 32 32"><pathz d="M21,2c-5,0-9,4-9,9c0,1.6,0.5,3.3,1.4,5H11c-0.1,0-0.3,0-0.4,0.1c-0.1,0.1-0.2,0.1-0.3,0.2l-8,8C2,24.6,1.9,25,2.1,25.4
	S2.6,26,3,26h6.6l3.7,3.7c0.2,0.2,0.4,0.3,0.7,0.3h7c0.1,0,0.3,0,0.4-0.1c0.1-0.1,0.2-0.1,0.3-0.2l8-8c0.1-0.1,0.2-0.2,0.2-0.3
	c0.1-0.2,0.1-0.5,0-0.8c-0.1-0.2-0.3-0.4-0.5-0.5C29.3,20,29.1,20,29,20h-3.3c2.2-2.5,4.3-5.7,4.3-9C30,6,26,2,21,2z M21,4
	c3.9,0,7,3.1,7,7c0,3.6-3.4,7.4-5.4,9.3c-0.6,0.6-1.2,1.1-1.6,1.4c-1.1-0.9-3.3-2.9-4.9-5.3c-1.4-2-2.1-3.8-2.1-5.4
	C14,7.1,17.1,4,21,4z M10.7,24.3C10.5,24.1,10.3,24,10,24H5.4l6-6h3.3c2.4,3.3,5.5,5.7,5.7,5.8c0.2,0.1,0.4,0.2,0.6,0.2
	c0.2,0,0.4-0.1,0.6-0.2c0,0,0.9-0.7,2.1-1.8h2.9l-6,6h-6.2L10.7,24.3z"/><path d="M21,15.8c2.8,0,5-2.2,5-5s-2.2-5-5-5s-5,2.2-5,5S18.2,15.8,21,15.8z M21,7.8c1.7,0,3,1.3,3,3s-1.3,3-3,3s-3-1.3-3-3
	S19.3,7.8,21,7.8z"/></svg>