<svg id="SvgjsSvg1001" width="288" height="288" xmlns="http://www.w3.org/2000/svg" version="1.1" xmlns:xlink="http://www.w3.org/1999/xlink" xmlns:svgjs="http://svgjs.com/svgjs"><defs id="SvgjsDefs1002"></defs><g id="SvgjsG1008" transform="matrix(1,0,0,1,0,0)"><svg xmlns="http://www.w3.org/2000/svg" viewBox="0 0 32 32" width="288" height="288"><linearGradient id="a" x1="3.667" x2="23.534" y1="15.595" y2="15.595" gradientUnits="userSpaceOnUse"><stop offset="0" stop-color="#f953c6" class="stopColor2B2F82 svgShape"></stop><stop offset="1" stop-color="#bf509d" class="stopColorBF509D svgShape"></stop></linearGradient><path fill="url(#a)" d="M11.289 14.359a.499.499 0 0 0-.032.706l.395.434c.235.256.364.589.364.988 0 .276.224.475.5.475s.5-.248.5-.524c0-.6-.223-1.173-.626-1.613l-.395-.433a.5.5 0 0 0-.706-.033z"></path><linearGradient id="b" x1="3.667" x2="23.534" y1="15.595" y2="15.595" gradientUnits="userSpaceOnUse"><stop offset="0" stop-color="#f953c6" class="stopColor2B2F82 svgShape"></stop><stop offset="1" stop-color="#bf509d" class="stopColorBF509D svgShape"></stop></linearGradient><path fill="url(#b)" d="M20.032 14.392l-.395.433a2.422 2.422 0 0 0-.626 1.663c0 .276.224.475.5.475s.5-.248.5-.524c0-.349.129-.682.364-.939l.395-.433a.499.499 0 0 0-.032-.706.498.498 0 0 0-.706.031z"></path><linearGradient id="c" x1="3.667" x2="23.534" y1="8.993" y2="8.993" gradientUnits="userSpaceOnUse"><stop offset="0" stop-color="#f953c6" class="stopColor2B2F82 svgShape"></stop><stop offset="1" stop-color="#bf509d" class="stopColorBF509D svgShape"></stop></linearGradient><path fill="url(#c)" d="M10.016 16.987a.5.5 0 0 0 .5-.5v-1.708c0-.486.26-.944.677-1.195l1.867-1.12.992 1.24a.502.502 0 0 0 .363.187l.027.001c.132 0 .26-.053.354-.146l.716-.716v3.458a.5.5 0 0 0 1 0v-3.475l.732.733a.501.501 0 0 0 .354.146l.027-.001a.496.496 0 0 0 .363-.187l.99-1.237 1.861 1.117c.418.251.677.709.677 1.195v1.708a.5.5 0 0 0 1 0v-1.708c0-.836-.445-1.622-1.162-2.053l-2.171-1.303-.803-.891c-.049-.054-.117-.075-.181-.102v-.754a3.346 3.346 0 0 0 1.188-2.546V5.967l.499-2.307a1.808 1.808 0 0 0-.304-1.372 1.799 1.799 0 0 0-1.187-.745l-3.106-.519a1.779 1.779 0 0 0-1.452.4 1.78 1.78 0 0 0-.586.968 1.565 1.565 0 0 0-1.073 1.855l.473 1.728V7.13a3.35 3.35 0 0 0 1.253 2.6v.665a.491.491 0 0 0-.243.138l-.794.881-2.189 1.313a2.408 2.408 0 0 0-1.162 2.053v1.708c0 .276.223.499.5.499zm6.004-5.727l-1.116-.531v-.435c.351.124.722.204 1.114.204.417 0 .811-.086 1.18-.225v.426l-1.178.561zm2.185.573l-.648.81-.683-.682 1.012-.482.319.354zM13.15 4.011a.564.564 0 0 1 .552-.685c.276 0 .5-.258.5-.534a.794.794 0 0 1 .923-.781l3.106.519a.805.805 0 0 1 .533.335c.128.181.177.4.141.602l-.285 1.315-.235-.293a.5.5 0 0 0-.39-.187h-3.953a.497.497 0 0 0-.39.188l-.276.344-.226-.823zm.501 3.119V6.088l.631-.785h3.474l.631.784V7.13c0 1.306-1.063 2.368-2.368 2.368s-2.368-1.062-2.368-2.368zm.503 4.349l1.012.482-.683.683-.648-.811.319-.354z"></path><linearGradient id="d" x1="3.667" x2="23.534" y1="22.25" y2="22.25" gradientUnits="userSpaceOnUse"><stop offset="0" stop-color="#f953c6" class="stopColor2B2F82 svgShape"></stop><stop offset="1" stop-color="#bf509d" class="stopColorBF509D svgShape"></stop></linearGradient><path fill="url(#d)" d="M21.444 26.257a.5.5 0 0 0-.172-.686l-4.757-2.854V18.5a.5.5 0 0 0-1 0v4.217l-4.757 2.854a.5.5 0 1 0 .514.858l4.743-2.846 4.743 2.846a.499.499 0 0 0 .686-.172z"></path><linearGradient id="e" x1="3.667" x2="23.534" y1="25.001" y2="25.001" gradientUnits="userSpaceOnUse"><stop offset="0" stop-color="#f953c6" class="stopColor2B2F82 svgShape"></stop><stop offset="1" stop-color="#bf509d" class="stopColorBF509D svgShape"></stop></linearGradient><path fill="url(#e)" d="M9.601 27.213l-1.883-.706v-.85a2.529 2.529 0 0 0 .797-1.839v-.943l.473-1.734a1.48 1.48 0 0 0-.246-1.12 1.474 1.474 0 0 0-.973-.612l-2.326-.388a1.468 1.468 0 0 0-1.652 1.05 1.3 1.3 0 0 0-.566.405c-.247.307-.342.702-.231 1.175l.44 1.054v1.113c0 .734.318 1.391.817 1.856v.833l-1.882.706A2.145 2.145 0 0 0 .985 29.21v1.29a.5.5 0 0 0 1 0v-1.29c0-.47.296-.896.735-1.062l1.786-.67c.304.501.851.841 1.479.841s1.174-.339 1.478-.841l1.787.67c.439.166.735.592.735 1.062v1.29a.5.5 0 0 0 1 0v-1.29a2.144 2.144 0 0 0-1.384-1.997zm-5.519-5.529l-.14-.329a.293.293 0 0 1 .06-.25.292.292 0 0 1 .231-.11c.276 0 .5-.249.5-.525a.46.46 0 0 1 .165-.356.462.462 0 0 1 .38-.104l2.326.388a.48.48 0 0 1 .318.201.476.476 0 0 1 .09.323l-.196.717a.497.497 0 0 0-.368-.162h-2.96a.49.49 0 0 0-.406.207zm2.636 4.901a.734.734 0 0 1-1.467 0v-.343c.231.069.471.118.724.118.261 0 .507-.051.744-.124v.349zm.797-2.767c0 .85-.691 1.541-1.541 1.541s-1.541-.691-1.541-1.541v-.749c.005-.007.013-.01.018-.018l.329-.577h2.405l.33.484v.86z"></path><linearGradient id="f" x1="3.667" x2="23.534" y1="25.001" y2="25.001" gradientUnits="userSpaceOnUse"><stop offset="0" stop-color="#f953c6" class="stopColor2B2F82 svgShape"></stop><stop offset="1" stop-color="#bf509d" class="stopColorBF509D svgShape"></stop></linearGradient><path fill="url(#f)" d="M29.601 27.213l-1.636-.613-.247-.383v-.56a2.529 2.529 0 0 0 .797-1.839v-.943l.473-1.734a1.48 1.48 0 0 0-.246-1.12 1.474 1.474 0 0 0-.973-.612l-2.326-.388a1.47 1.47 0 0 0-1.189.327c-.225.19-.384.439-.463.723a1.3 1.3 0 0 0-.566.405c-.247.307-.342.702-.231 1.175l.44 1.054v1.113c0 .734.318 1.391.817 1.856v.543l-.247.382-1.635.613a2.145 2.145 0 0 0-1.384 1.997v1.29a.5.5 0 0 0 1 0v-.775l1.109-1.717 1.413-.53c.304.501.851.841 1.479.841s1.174-.339 1.478-.841l1.413.529 1.11 1.718v.776a.5.5 0 0 0 1 0v-1.29a2.148 2.148 0 0 0-1.386-1.997zm-5.519-5.529l-.14-.329a.293.293 0 0 1 .06-.25.292.292 0 0 1 .231-.11c.276 0 .5-.249.5-.525a.46.46 0 0 1 .165-.356.462.462 0 0 1 .38-.104l2.326.388a.48.48 0 0 1 .318.201.476.476 0 0 1 .09.323l-.196.717a.497.497 0 0 0-.368-.162h-2.96a.49.49 0 0 0-.406.207zm2.636 4.901a.734.734 0 0 1-1.467 0v-.343c.231.069.471.118.724.118.261 0 .507-.051.744-.124v.349zm.797-2.767c0 .85-.691 1.541-1.541 1.541s-1.541-.691-1.541-1.541v-.749c.005-.007.013-.01.018-.018l.329-.577h2.405l.33.484v.86z"></path></svg></g></svg>