<svg xmlns="http://www.w3.org/2000/svg" xmlns:xlink="http://www.w3.org/1999/xlink" width="64" height="64" viewBox="0 0 64 64"><defs><linearGradient id="a"><stop offset="0" stop-color="#000092"/><stop offset="1" stop-color="#ff00f3"/></linearGradient><linearGradient id="b" x1="13" x2="48" y1="31.5" y2="31.5" gradientUnits="userSpaceOnUse" xlink:href="#a"/></defs><path fill="url(#b)" d="M 31.5 9 C 30.654726 9 29.783536 9.4465498 28.884766 10.119141 C 27.985995 10.791731 27.068154 11.715291 26.232422 12.775391 C 24.560959 14.895691 23.199219 17.545291 23.199219 19.900391 C 23.199219 21.898391 23.987825 23.675422 25.166016 25.107422 L 20.876953 27.251953 C 20.245622 27.567653 19.569006 27.861447 19.005859 28.310547 C 18.442713 28.759547 18 29.428881 18 30.300781 L 18 31 L 17.5 31 C 16.677643 31 16 31.6777 16 32.5 L 16 50 L 13 50 L 13 51.5 C 13 52.8764 14.123649 54 15.5 54 L 47.5 54 C 48.876351 54 50 52.8764 50 51.5 L 50 50 L 47 50 L 47 32.5 C 47 31.6777 46.322357 31 45.5 31 L 45 31 L 45 30.300781 C 45 29.428881 44.557287 28.759547 43.994141 28.310547 C 43.430994 27.861447 42.754378 27.567653 42.123047 27.251953 L 37.833984 25.107422 C 39.012175 23.675422 39.800781 21.898391 39.800781 19.900391 C 39.800781 17.545291 38.439041 14.895691 36.767578 12.775391 C 35.931846 11.715291 35.014005 10.791731 34.115234 10.119141 C 33.216464 9.4465498 32.345274 9 31.5 9 z M 31.5 10 C 31.954726 10 32.707999 10.315542 33.515625 10.919922 C 34.323251 11.524302 35.192959 12.393031 35.982422 13.394531 C 37.561349 15.397431 38.800781 17.947691 38.800781 19.900391 C 38.800781 21.868691 38.021085 23.647137 36.755859 24.960938 L 36.283203 25.451172 L 41.677734 28.146484 C 42.334753 28.474984 42.956522 28.76315 43.371094 29.09375 C 43.785665 29.42425 44 29.732281 44 30.300781 L 44 31 L 19 31 L 19 30.300781 C 19 29.732281 19.214335 29.42425 19.628906 29.09375 C 20.043478 28.76315 20.665247 28.474984 21.322266 28.146484 L 26.716797 25.451172 L 26.244141 24.960938 C 24.978915 23.647137 24.199219 21.868691 24.199219 19.900391 C 24.199219 17.947691 25.438651 15.397431 27.017578 13.394531 C 27.807041 12.393031 28.676749 11.524302 29.484375 10.919922 C 30.292001 10.315542 31.045274 10 31.5 10 z M 31.5 14.201172 C 28.357902 14.201172 25.800781 16.758291 25.800781 19.900391 C 25.800781 21.487191 26.479675 23.476872 27.498047 25.138672 C 28.516418 26.800472 29.88409 28.201172 31.5 28.201172 C 33.11591 28.201172 34.483582 26.800472 35.501953 25.138672 C 36.520325 23.476872 37.199219 21.487191 37.199219 19.900391 C 37.199219 16.758291 34.642098 14.201172 31.5 14.201172 z M 31.5 15.201172 C 34.101662 15.201172 36.199219 17.298691 36.199219 19.900391 C 36.199219 21.185391 35.580066 23.096986 34.648438 24.617188 C 33.716808 26.137488 32.48409 27.201172 31.5 27.201172 C 30.51591 27.201172 29.283191 26.137486 28.351562 24.617188 C 27.419935 23.096986 26.800781 21.185391 26.800781 19.900391 C 26.800781 17.298691 28.898338 15.201172 31.5 15.201172 z M 17.5 32 L 45.5 32 C 45.785663 32 46 32.2144 46 32.5 L 46 50.5 C 46 50.7857 45.785663 51 45.5 51 L 17.5 51 C 17.214337 51 17 50.7857 17 50.5 L 17 32.5 C 17 32.2144 17.214337 32 17.5 32 z M 32.646484 38.658203 C 31.924864 38.748403 31.384409 39.335219 31.474609 40.011719 C 32.151139 39.921519 32.691684 39.334703 32.646484 38.658203 z M 30.482422 39.966797 C 30.076502 39.966797 29.580979 40.237134 29.355469 40.552734 C 28.904459 41.184134 28.948506 41.905253 29.128906 42.626953 C 29.309316 43.393553 29.986124 44.341797 30.527344 44.341797 C 30.978354 44.341797 31.203465 44.115234 31.609375 44.115234 C 32.015295 44.115234 32.240574 44.341797 32.646484 44.341797 C 33.142604 44.341797 33.72939 43.530194 34 42.808594 C 33.50388 42.628194 33.1875 42.130866 33.1875 41.634766 C 33.1875 41.138666 33.414392 40.778334 33.820312 40.552734 C 33.594794 40.191934 33.142238 39.966797 32.736328 39.966797 C 32.285308 39.966797 32.015295 40.191406 31.609375 40.191406 C 31.248565 40.191406 30.978532 39.966797 30.482422 39.966797 z M 14 51 L 16.09375 51 C 16.302757 51.578101 16.853926 52 17.5 52 L 45.5 52 C 46.146074 52 46.697243 51.578101 46.90625 51 L 49 51 L 49 51.5 C 49 52.3397 48.339649 53 47.5 53 L 15.5 53 C 14.660351 53 14 52.3397 14 51.5 L 14 51 z " color="#000" font-family="sans-serif" font-weight="400" overflow="visible" style="line-height:normal;text-indent:0;text-align:start;text-decoration-line:none;text-decoration-style:solid;text-decoration-color:#000;text-transform:none;block-progression:tb;isolation:auto;mix-blend-mode:normal"/></svg>