<svg xmlns="http://www.w3.org/2000/svg" xmlns:xlink="http://www.w3.org/1999/xlink" width="32" height="32" viewBox="0 0 32 32"><defs><linearGradient id="a"><stop offset="0" stop-color="#000092"/><stop offset="1" stop-color="#ff00f3"/></linearGradient><linearGradient id="b" x1="1" x2="29" y1="16" y2="16" gradientUnits="userSpaceOnUse" xlink:href="#a"/></defs><path fill="url(#b)" fill-rule="evenodd" d="M 21.621094 0 C 20.732823 0 20 0.73084063 20 1.6191406 L 20 5.3242188 C 20 6.2124188 20.732769 6.9414062 21.621094 6.9414062 L 22.533203 6.9414062 L 22.533203 8.6777344 A 0.50004994 0.50004994 0 0 0 23.380859 9.0351562 L 25.53125 6.9414062 L 29.380859 6.9414062 C 30.269184 6.9414062 31 6.2124187 31 5.3242188 L 31 1.6191406 C 31 0.73084063 30.26913 0 29.380859 0 L 21.621094 0 z M 21.621094 1 L 29.380859 1 C 29.733693 1 30 1.2685406 30 1.6191406 L 30 5.3242188 C 30 5.6747188 29.733639 5.9414062 29.380859 5.9414062 L 25.328125 5.9414062 A 0.50004994 0.50004994 0 0 0 24.980469 6.0839844 L 23.533203 7.4921875 L 23.533203 6.4414062 A 0.50004994 0.50004994 0 0 0 23.033203 5.9414062 L 21.621094 5.9414062 C 21.268314 5.9414062 21 5.6747188 21 5.3242188 L 21 1.6191406 C 21 1.2685406 21.26826 1 21.621094 1 z M 23.5 3 A 0.50000006 0.49901515 0 0 0 23 3.5 A 0.50000006 0.49901515 0 0 0 23.5 3.9980469 A 0.50000006 0.49901515 0 0 0 24 3.5 A 0.50000006 0.49901515 0 0 0 23.5 3 z M 25.5 3 A 0.50000006 0.49901515 0 0 0 25 3.5 A 0.50000006 0.49901515 0 0 0 25.5 3.9980469 A 0.50000006 0.49901515 0 0 0 26 3.5 A 0.50000006 0.49901515 0 0 0 25.5 3 z M 27.5 3 A 0.50000006 0.49901515 0 0 0 27 3.5 A 0.50000006 0.49901515 0 0 0 27.5 3.9980469 A 0.50000006 0.49901515 0 0 0 28 3.5 A 0.50000006 0.49901515 0 0 0 27.5 3 z M 15.972656 5.515625 C 13.641296 5.515625 11.744149 7.4283313 11.744141 9.7695312 C 11.744145 11.087987 12.358729 12.254123 13.300781 13.035156 C 13.265226 13.037879 13.22873 13.037645 13.193359 13.041016 L 4.5410156 13.041016 C 3.6972697 13.041016 3 13.732672 3 14.576172 L 3 28 L 1.5 28 A 0.50005006 0.50005006 0 0 0 1 28.5 C 1 30.4254 2.5393024 32 4.4433594 32 L 27.556641 32 C 29.460698 32 31 30.4254 31 28.5 A 0.50005006 0.50005006 0 0 0 30.5 28 L 29 28 L 29 14.576172 C 29 13.732672 28.302763 13.041016 27.458984 13.041016 L 18.783203 13.041016 C 18.738216 13.036729 18.691771 13.038394 18.646484 13.035156 C 19.587871 12.254115 20.201167 11.087447 20.201172 9.7695312 C 20.201163 7.4283312 18.304017 5.515625 15.972656 5.515625 z M 15.972656 6.515625 C 17.760079 6.515625 19.201165 7.9652312 19.201172 9.7695312 C 19.201165 11.547395 17.799967 12.972254 16.048828 13.013672 L 15.896484 13.013672 C 14.145346 12.972254 12.744147 11.547395 12.744141 9.7695312 C 12.744147 7.9652312 14.185234 6.515625 15.972656 6.515625 z M 13.742188 14.013672 L 14.984375 14.013672 L 14.488281 19.958984 A 0.50005 0.50005 0 0 0 14.634766 20.353516 L 15.634766 21.353516 A 0.50005 0.50005 0 0 0 16.341797 21.353516 L 17.341797 20.353516 A 0.50005 0.50005 0 0 0 17.486328 19.958984 L 16.990234 14.013672 L 18.234375 14.013672 C 20.867952 14.013672 22.974609 16.133063 22.974609 18.789062 L 22.974609 21.982422 L 20.980469 21.982422 L 20.980469 19.087891 A 0.50004991 0.50004991 0 0 0 20.472656 18.580078 A 0.50004991 0.50004991 0 0 0 19.980469 19.087891 L 19.980469 21.982422 L 11.994141 21.982422 L 11.994141 19.087891 A 0.50004991 0.50004991 0 0 0 11.488281 18.580078 A 0.50004991 0.50004991 0 0 0 10.994141 19.087891 L 10.994141 21.982422 L 9 21.982422 L 9 18.789062 C 9 16.133163 11.108621 14.013672 13.742188 14.013672 z M 15.986328 14.021484 A 0.50005 0.50005 0 0 0 15.988281 14.041016 L 16.470703 19.808594 L 15.988281 20.291016 L 15.505859 19.808594 L 15.986328 14.041016 A 0.50005 0.50005 0 0 0 15.986328 14.021484 z M 4.5410156 14.041016 L 10.476562 14.041016 C 10.083367 14.315129 9.7274111 14.638123 9.4140625 15 L 5.5 15 A 0.50004997 0.50004997 0 0 0 5 15.5 L 5 26.5 A 0.50004997 0.50004997 0 0 0 5.5 27 L 10.75 27 L 21.564453 27 L 24.574219 27 L 26.5 27 A 0.50004997 0.50004997 0 0 0 27 26.5 L 27 15.5 A 0.50004997 0.50004997 0 0 0 26.5 15 L 22.560547 15 C 22.247455 14.638287 21.892882 14.315029 21.5 14.041016 L 27.458984 14.041016 C 27.769406 14.041016 28 14.272672 28 14.576172 L 28 28 L 4 28 L 4 14.576172 C 4 14.272672 4.2306816 14.041016 4.5410156 14.041016 z M 6 16 L 8.7148438 16 C 8.2608384 16.826845 8 17.777709 8 18.789062 L 8 22.482422 A 0.50004991 0.50004991 0 0 0 8.5 22.982422 L 11.361328 22.982422 A 0.50004991 0.50004991 0 0 0 11.625 22.982422 L 20.347656 22.982422 A 0.50004991 0.50004991 0 0 0 20.611328 22.982422 L 23.474609 22.982422 A 0.50004991 0.50004991 0 0 0 23.974609 22.482422 L 23.974609 18.789062 C 23.974609 17.777677 23.715457 16.826846 23.261719 16 L 26 16 L 26 26 L 24.574219 26 L 21.564453 26 L 10.75 26 L 6 26 L 6 16 z M 2.2011719 29 L 12.835938 29 L 12.835938 29.279297 C 12.835938 29.973097 13.401244 30.558594 14.097656 30.558594 L 17.902344 30.558594 C 18.598677 30.558594 19.164063 29.973197 19.164062 29.279297 L 19.164062 29 L 29.798828 29 C 29.549839 30.1161 28.72254 31 27.556641 31 L 4.4433594 31 C 3.2774602 31 2.4501612 30.1161 2.2011719 29 z M 13.835938 29 L 18.164062 29 L 18.164062 29.279297 C 18.164062 29.449297 18.049131 29.558594 17.902344 29.558594 L 14.097656 29.558594 C 13.950948 29.558594 13.835937 29.449197 13.835938 29.279297 L 13.835938 29 z " color="#000" font-family="sans-serif" font-weight="400" overflow="visible" style="line-height:normal;text-indent:0;text-align:start;text-decoration-line:none;text-decoration-style:solid;text-decoration-color:#000;text-transform:none;block-progression:tb;isolation:auto;mix-blend-mode:normal"/></svg>