<svg id="SvgjsSvg1001" width="288" height="288" xmlns="http://www.w3.org/2000/svg" version="1.1" xmlns:xlink="http://www.w3.org/1999/xlink" xmlns:svgjs="http://svgjs.com/svgjs"><defs id="SvgjsDefs1002"></defs><g id="SvgjsG1008" transform="matrix(1,0,0,1,0,0)"><svg xmlns="http://www.w3.org/2000/svg" viewBox="0 0 32 32" width="288" height="288"><linearGradient id="a" x1="2" x2="19.7" y1="16" y2="16" gradientUnits="userSpaceOnUse"><stop offset="0" stop-color="#da22ff" class="stopColor2B2E81 svgShape"></stop><stop offset="1" stop-color="#9733ee" class="stopColorBE4F9C svgShape"></stop></linearGradient><path fill="url(#a)" d="M31.2 12c-.2-.2-.5-.2-.7 0l-5.7 5.7-.4-.4-2.4-2.5-2.8-2.8 5.7-5.7c.2-.2.2-.5 0-.7s-.5-.2-.7 0l-6 6c-.2.1-.2.2-.2.4s.1.3.1.4l.4.4-1.1 1.1-.6-.6c-.1-.1-.3-.2-.4-.1l-1.6.2-.5-.5.7-.7c.1-.1.1-.2.1-.4s-.1-.3-.1-.4l-2.8-2.8-4.3-4.4c-.2-.2-.5-.2-.7 0s-.2.5 0 .7l1 1.1L11 8.8l-5.7 5.7-3.9-3.9c-.2-.2-.5-.2-.7 0s-.2.5 0 .7l1.1 1.1 6 6c.1.1.2.1.4.1s.3 0 .4-.1l.3-.4.8.8c-.3.5-.2 1.2.3 1.7l.4.4c-.6.6-.6 1.5 0 2.1.3.3.6.4 1 .4 0 .4.2.7.4 1 .3.3.6.4 1 .4 0 .4.2.7.4 1 .3.3.6.4 1 .4 0 .4.2.7.4 1 .3.3.7.4 1.1.4s.8-.1 1.1-.4l.4.4c.3.3.7.4 1.1.4s.8-.1 1.1-.4c.3-.3.4-.6.4-1 .4 0 .7-.2 1-.4.3-.3.4-.6.4-1 .4 0 .7-.2 1-.4.3-.3.4-.6.4-1 .4 0 .7-.2 1-.4.6-.6.6-1.5 0-2.1l-.4-.4c.5-.5.6-1.2.3-1.7l.8-.8.4.4c.1.1.2.1.4.1s.3 0 .4-.1l6-6c-.1-.3-.1-.6-.3-.8zM6.1 15.1l5.7-5.7 2.1 2.1-2.8 2.8-2.5 2.5-.4.4-2.1-2.1zm4.6 4.6c-.2-.2-.2-.5 0-.7s.2-.5 0-.7l-1.1-1.1.2-.2 3.7-3.7.7.7c.1.1.3.2.4.1l1.6-.2 3.3 3.3c-.5.3-1.1.3-1.6-.1L16 15.2c-.2-.2-.5-.2-.7 0-.2.2-.2.5 0 .7L11 20.1l-.3-.4zm7.8 7.1c-.2.2-.5.2-.7 0l-.4-.4.7-.7.4.4c.1.1.1.2.1.4s0 .2-.1.3zm1.4-1.4c-.1.1-.2.1-.4.1-.1 0-.3-.1-.4-.1l-.3-.4.7-.7.4.4c.1.1.1.2.1.3s0 .3-.1.4zm1.4-1.4c-.2.2-.5.2-.7 0l-.4-.4.7-.7.4.4c.2.2.2.5 0 .7zm1.4-2.1c.1.1.1.2.1.4s-.1.3-.1.4c-.2.2-.5.2-.7 0l-.4-.4.7-.7.4.3zm-.3-3.2c-.2.2-.2.5 0 .7s.2.5 0 .7l-3.2 3.2-1.4 1.4-1.4 1.4-.4.4c-.2.2-.5.2-.7 0s-.2-.5 0-.7l1.4-1.4c.2-.2.2-.5 0-.7s-.5-.2-.7 0L14.6 25c-.2.2-.5.2-.7 0s-.2-.5 0-.7l1.4-1.4c.2-.2.2-.5 0-.7s-.5-.2-.7 0l-1.4 1.4c-.1.1-.2.1-.4.1-.1 0-.3-.1-.4-.1-.2-.2-.2-.5 0-.7l1.4-1.4c.2-.2.2-.5 0-.7s-.5-.2-.7 0l-1.4 1.4c-.2.2-.5.2-.7 0-.2-.2-.2-.5 0-.7l5-5 1.3 1.3c.4.4 1 .7 1.6.7s1.2-.2 1.6-.7l.2-.2c.2-.2.2-.5 0-.7l-2.5-2.5 1.1-1.1 2.1 2.1 2.1 2.1-1.1 1.2z"></path><linearGradient id="b" x1="2" x2="19.7" y1="15.136" y2="15.136" gradientUnits="userSpaceOnUse"><stop offset="0" stop-color="#da22ff" class="stopColor2B2E81 svgShape"></stop><stop offset="1" stop-color="#9733ee" class="stopColorBE4F9C svgShape"></stop></linearGradient><circle cx="8.2" cy="15.1" r=".5" fill="url(#b)"></circle></svg></g></svg>